<?xml version="1.0" encoding="utf-8"?>
<!-- Generator: Adobe Illustrator 25.2.3, SVG Export Plug-In . SVG Version: 6.00 Build 0)  -->
<svg version="1.1" id="Capa_1" xmlns="http://www.w3.org/2000/svg" xmlns:xlink="http://www.w3.org/1999/xlink" x="0px" y="0px"
	 viewBox="0 0 488.8 83" style="enable-background:new 0 0 488.8 83;" xml:space="preserve">
<style type="text/css">
	.st0{fill:#273ABE;}
	.st1{fill:#FE146B;}
	.st2{fill:#FFFFFF;}
</style>
<path class="st0" d="M35.3,7.1c3.6,0,7,0.5,10.3,1.5c1.5,0.5-1.9,8.5-0.4,9.1c2.3,1,9.3-5.1,11.3-3.6c8.6,6.4,14.1,16.7,14.1,28.2
	c0,19.5-15.8,35.3-35.3,35.3S0,61.8,0,42.3C0.1,22.9,15.9,7.1,35.3,7.1"/>
<g>
	<path class="st0" d="M94.7,24c-0.3-0.9-0.9-1.6-1.6-2.1s-1.5-0.7-2.3-0.7c-0.9-0.1-1.7,0.1-2.5,0.6S87,23,86.6,23.9L71.2,61.1
		C71.1,61.6,71,62,71,62.4c0,1,0.3,1.9,0.9,2.6s1.6,1.1,2.9,1.1c0.8,0,1.6-0.3,2.2-0.7c0.7-0.5,1.2-1.2,1.5-2l3.1-7.3h17.8l3.1,7.2
		c0.4,0.9,0.9,1.6,1.6,2.1s1.5,0.8,2.3,0.8c1,0,1.9-0.4,2.7-1.1c0.8-0.8,1.2-1.8,1.2-3c0-0.5-0.1-1.1-0.3-1.7L94.7,24z M85,48
		l5.4-12.8L95.9,48H85z"/>
	<path class="st0" d="M137.1,33.1c-1.6-1.4-4-2-7.1-2c-1.4,0-2.8,0.2-4,0.7c-1.2,0.4-2.3,1-3.3,1.8c-0.9,0.6-1.6,1.3-2.2,2V23.2
		c0-1.2-0.4-2.2-1.2-3s-1.8-1.2-3-1.2s-2.2,0.4-3,1.2c-0.8,0.8-1.2,1.8-1.2,3v38.4c0,1.2,0.4,2.2,1.2,3s1.8,1.2,3,1.2s2.2-0.4,3-1.2
		c0.8-0.8,1.2-1.8,1.2-3V45.7c0-1.3,0.3-2.4,0.8-3.5c0.5-1,1.3-1.8,2.3-2.4s2.3-0.9,3.8-0.9c1.5,0,2.6,0.3,3.4,0.9
		c0.8,0.6,1.3,1.4,1.6,2.4c0.3,1,0.5,2.2,0.5,3.6v15.9c0,1.2,0.4,2.2,1.2,3c0.8,0.8,1.8,1.2,3,1.2c1.2,0,2.2-0.4,3-1.2
		c0.8-0.8,1.2-1.8,1.2-3v-16c0-2.6-0.3-5.1-0.9-7.2C139.8,36.2,138.7,34.4,137.1,33.1z"/>
	<path class="st0" d="M169.6,33.3c-2.6-1.5-5.6-2.3-8.8-2.3c-3.2,0-6.2,0.8-8.8,2.3s-4.7,3.6-6.3,6.3c-1.5,2.7-2.3,5.8-2.3,9.2
		c0,3.5,0.8,6.6,2.3,9.2c1.5,2.7,3.6,4.7,6.3,6.2c2.6,1.5,5.6,2.2,8.8,2.2c3.2,0,6.2-0.8,8.8-2.2c2.6-1.5,4.7-3.6,6.3-6.2
		c1.5-2.7,2.3-5.8,2.3-9.2c0-3.5-0.8-6.6-2.3-9.2C174.3,36.9,172.2,34.8,169.6,33.3z M169.8,48.8c0,2-0.4,3.7-1.2,5.2
		c-0.8,1.5-1.9,2.6-3.2,3.4c-1.3,0.8-2.8,1.2-4.5,1.2c-1.6,0-3.1-0.4-4.5-1.2c-1.3-0.8-2.4-2-3.2-3.4c-0.8-1.5-1.2-3.2-1.2-5.2
		s0.4-3.8,1.2-5.3c0.8-1.5,1.9-2.6,3.2-3.4c1.3-0.8,2.8-1.2,4.5-1.2c1.6,0,3.1,0.4,4.5,1.2c1.3,0.8,2.4,2,3.2,3.4
		C169.4,45,169.8,46.8,169.8,48.8z"/>
	<path class="st0" d="M203.2,32.2c-0.9-0.8-2.1-1.2-3.4-1.2c-1.1,0-2.2,0.1-3.2,0.4c-1.1,0.3-2.1,0.7-3,1.2c-1,0.5-1.8,1.2-2.6,2
		c-0.2,0.2-0.4,0.4-0.5,0.6c-0.1-0.9-0.5-1.7-1.1-2.3c-0.8-0.8-1.8-1.2-3-1.2c-1.2,0-2.2,0.4-3,1.2c-0.8,0.8-1.2,1.8-1.2,3v25.6
		c0,1.2,0.4,2.2,1.2,3c0.8,0.8,1.8,1.2,3,1.2c1.2,0,2.2-0.4,3-1.2c0.8-0.8,1.2-1.8,1.2-3V46.9c0-1.4,0.2-2.7,0.6-3.7
		c0.4-1,0.9-1.9,1.5-2.6s1.2-1.2,1.9-1.5c1.5-0.7,3-0.6,4-0.1c0.7,0.3,1.5,0.5,2.3,0.5c0.9,0,1.8-0.3,2.6-1c0.8-0.7,1.2-1.8,1.2-3.3
		C204.6,34,204.1,33,203.2,32.2z"/>
	<path class="st0" d="M229.1,32.2c-0.9-0.8-2.1-1.2-3.4-1.2c-1.1,0-2.2,0.1-3.2,0.4c-1.1,0.3-2.1,0.7-3,1.2c-1,0.5-1.8,1.2-2.6,2
		c-0.2,0.2-0.4,0.4-0.5,0.6c-0.1-0.9-0.5-1.7-1.1-2.3c-0.8-0.8-1.8-1.2-3-1.2c-1.2,0-2.2,0.4-3,1.2c-0.8,0.8-1.2,1.8-1.2,3v25.6
		c0,1.2,0.4,2.2,1.2,3c0.8,0.8,1.8,1.2,3,1.2c1.2,0,2.2-0.4,3-1.2c0.8-0.8,1.2-1.8,1.2-3V46.9c0-1.4,0.2-2.7,0.6-3.7
		c0.4-1,0.9-1.9,1.5-2.6s1.2-1.2,1.9-1.5c1.5-0.7,3-0.6,4-0.1c0.7,0.3,1.5,0.5,2.3,0.5c0.9,0,1.8-0.3,2.6-1c0.8-0.7,1.2-1.8,1.2-3.3
		C230.5,34,230,33,229.1,32.2z"/>
	<path class="st0" d="M260.1,31c-1.2,0-2.2,0.4-3,1.2c-0.6,0.6-0.9,1.3-1.1,2.1c-0.2-0.1-0.3-0.3-0.5-0.4c-1.1-0.9-2.5-1.6-4-2.1
		c-1.5-0.6-3.2-0.8-5.1-0.8c-2.9,0-5.5,0.8-7.8,2.3c-2.3,1.5-4.2,3.6-5.6,6.3c-1.4,2.6-2.1,5.7-2.1,9.2c0,3.4,0.7,6.5,2.1,9.1
		c1.4,2.7,3.3,4.8,5.7,6.3s5.1,2.3,8,2.3c1.6,0,3.2-0.3,4.5-0.8c1.4-0.5,2.6-1.2,3.6-2c0.4-0.3,0.8-0.7,1.2-1
		c0.2,0.7,0.5,1.4,1.1,1.9c0.8,0.8,1.8,1.2,3,1.2s2.2-0.4,3-1.2c0.8-0.8,1.2-1.8,1.2-3V35.3c0-1.2-0.4-2.3-1.2-3.1
		C262.3,31.4,261.3,31,260.1,31z M256.2,48.8c0,1.9-0.4,3.6-1.1,5.1s-1.7,2.7-3,3.5c-1.3,0.9-2.8,1.3-4.5,1.3s-3.2-0.4-4.4-1.3
		c-1.3-0.9-2.3-2-3-3.5s-1.1-3.2-1.1-5.1s0.4-3.6,1.1-5.1s1.7-2.7,3-3.5c1.3-0.9,2.8-1.3,4.4-1.3c1.7,0,3.2,0.4,4.5,1.3s2.3,2,3,3.5
		S256.2,46.9,256.2,48.8z"/>
	<path class="st0" d="M299.5,44.7c-1.3-1-2.8-1.8-4.6-2.5c-1.7-0.6-3.6-1.2-5.7-1.7c-1.8-0.5-3.5-1.1-5-1.7s-2.6-1.4-3.5-2.4
		c-0.8-0.9-1.2-2.1-1.2-3.5c0-1.3,0.4-2.4,1.1-3.3s1.8-1.7,3.2-2.2c1.4-0.5,3-0.8,4.8-0.8c1.2,0,2.5,0.2,3.7,0.5
		c1.2,0.4,2.4,0.8,3.4,1.4s1.9,1.3,2.6,2.1c0.5,0.4,1,0.5,1.5,0.5c0.8,0,1.5-0.3,2.1-0.9s0.9-1.3,0.9-2c0-0.9-0.5-1.8-1.4-2.7
		c-1.4-1.5-3.3-2.7-5.6-3.5c-2.3-0.8-4.8-1.3-7.3-1.3c-2.9,0-5.5,0.5-7.8,1.5s-4.1,2.5-5.4,4.3s-1.9,4-1.9,6.5c0,2,0.3,3.7,1,5.1
		s1.6,2.7,2.9,3.7c1.2,1,2.6,1.8,4.3,2.5c1.6,0.6,3.4,1.2,5.3,1.7c2.1,0.5,4,1.1,5.6,1.8c1.6,0.7,2.8,1.5,3.7,2.5
		c0.9,1,1.3,2.2,1.3,3.8c0,1.3-0.4,2.3-1.2,3.3c-0.8,1-1.9,1.7-3.3,2.3c-1.4,0.6-3,0.8-4.7,0.8c-2.3,0-4.3-0.4-6.2-1.2
		c-1.8-0.8-3.5-2-5.1-3.5c-0.6-0.5-1.2-0.8-1.9-0.8c-0.8,0-1.6,0.3-2.1,0.9c-0.6,0.6-0.8,1.3-0.8,2.1c0,0.5,0.1,1,0.3,1.4
		c0.2,0.4,0.5,0.8,0.8,1.1c2.2,2,4.5,3.5,6.9,4.4s5.1,1.4,8.2,1.4c2.8,0,5.4-0.5,7.7-1.6c2.3-1.1,4.1-2.5,5.4-4.4s2-4,2-6.4
		c0-2.2-0.4-4.1-1.1-5.6C301.9,47,300.8,45.7,299.5,44.7z"/>
	<path class="st0" d="M332.1,36.3c-1.4-1.4-3.1-2.5-4.9-3.2s-3.7-1.1-5.7-1.1c-2.6,0-5.2,0.7-7.5,2.1c-2.4,1.4-4.3,3.4-5.8,6
		s-2.2,5.8-2.2,9.5c0,3.3,0.7,6.3,2.1,8.8s3.4,4.5,6,6c2.5,1.4,5.5,2.2,8.9,2.2c2.3,0,4.5-0.5,6.5-1.5s3.7-2.1,4.8-3.4
		c0.8-0.7,1.2-1.5,1.2-2.3c0-0.7-0.3-1.3-0.8-1.8c-0.9-0.9-2.3-1.1-3.7-0.1l-0.1,0.1c-0.5,0.6-1.2,1.1-1.9,1.6
		c-0.7,0.5-1.6,1-2.6,1.3c-1,0.4-2.2,0.5-3.6,0.5c-2.2,0-4.1-0.5-5.8-1.5c-1.6-1-3-2.4-3.9-4.1c-0.7-1.4-1.2-2.9-1.3-4.7h22.1
		c0.8,0,1.5-0.3,2.1-0.8s0.9-1.2,1-2c0-2.4-0.5-4.6-1.3-6.5C334.7,39.3,333.6,37.7,332.1,36.3z M312.7,43.8c0.5-1.5,1.3-2.6,2.2-3.5
		c0.9-0.9,2-1.6,3.1-2c2.6-1,5.3-0.8,7.7,0.3c1.3,0.6,2.4,1.5,3.4,2.7c0.9,1.1,1.4,2.5,1.6,4.1h-18.4
		C312.4,44.8,312.5,44.3,312.7,43.8z"/>
	<path class="st0" d="M368.4,32.5c-0.9,0-1.6,0.3-2.2,0.9c-0.5,0.6-0.8,1.3-0.8,2.1v1.4c-0.5-0.5-1-1.1-1.6-1.6
		c-1.2-1-2.6-1.8-4.1-2.4c-1.6-0.6-3.3-0.9-5.1-0.9c-2.9,0-5.6,0.7-8,2.2s-4.3,3.5-5.6,6.1c-1.4,2.6-2.1,5.6-2.1,8.9
		s0.7,6.3,2.1,8.9s3.3,4.7,5.7,6.1c2.4,1.5,5.1,2.3,8.1,2.3c1.4,0,2.8-0.2,4.2-0.7c1.4-0.4,2.6-1.1,3.8-1.9c1.1-0.8,2-1.7,2.8-2.7
		v1.9c0,2.9-0.9,5.2-2.7,6.9c-1.8,1.7-4.4,2.6-7.7,2.6c-0.9,0-1.9-0.1-2.9-0.3c-1-0.2-1.9-0.5-2.7-0.8c-0.8-0.3-1.4-0.5-1.7-0.6
		c-1-0.4-1.8-0.6-2.5-0.6c-0.8,0-1.4,0.4-1.9,1.1c-0.4,0.6-0.5,1.3-0.3,1.9s0.6,1.1,1.3,1.6c0.4,0.6,1.1,1.1,2.4,1.6
		c1.2,0.5,2.6,0.9,4.1,1.2c1.5,0.3,3,0.5,4.2,0.5c3,0,5.8-0.6,8.2-1.7c2.5-1.1,4.5-2.9,5.9-5.2c1.5-2.3,2.2-5.3,2.2-8.7V35.4
		c0-0.8-0.3-1.5-0.8-2.1C370,32.8,369.3,32.5,368.4,32.5z M365.7,49.2c0,2.3-0.5,4.3-1.4,6s-2.2,3.1-3.7,4.1c-1.6,1-3.4,1.5-5.4,1.5
		s-3.9-0.5-5.4-1.5c-1.6-1-2.8-2.4-3.7-4.2c-0.9-1.8-1.4-3.8-1.4-5.9c0-2.2,0.5-4.3,1.4-6c0.9-1.8,2.2-3.2,3.7-4.2
		c1.6-1,3.4-1.5,5.4-1.5s3.8,0.5,5.4,1.5s2.8,2.4,3.7,4.1C365.2,44.9,365.7,47,365.7,49.2z"/>
	<path class="st0" d="M400.2,32.8c-0.9,0-1.6,0.3-2.2,0.9c-0.5,0.6-0.8,1.3-0.8,2.2v16.8c0,2.7-0.7,4.7-2,6s-3.3,2-5.8,2
		s-4.4-0.7-5.7-2c-1.3-1.3-2-3.4-2-6V35.8c0-0.9-0.3-1.6-0.8-2.2c-0.6-0.6-1.3-0.9-2.2-0.9c-0.8,0-1.5,0.3-2.1,0.9s-0.9,1.3-0.9,2.2
		v16.9c0,4.3,1.2,7.7,3.7,10.1c2.4,2.4,5.8,3.6,10,3.6c4.3,0,7.7-1.2,10.1-3.6s3.7-5.8,3.7-10.1V35.8c0-0.9-0.3-1.6-0.8-2.2
		C401.8,33.1,401.1,32.8,400.2,32.8z"/>
	<path class="st0" d="M426,32.7c-0.8-0.5-1.8-0.7-2.8-0.7c-1.6,0-3.1,0.3-4.4,0.9s-2.5,1.4-3.6,2.4c-0.9,0.8-1.6,1.8-2.2,2.8v-2.2
		c0-0.9-0.3-1.6-0.8-2.2c-0.6-0.6-1.3-0.9-2.2-0.9c-0.8,0-1.5,0.3-2.1,0.9S407,35,407,35.9v27c0,0.8,0.3,1.6,0.9,2.1
		c0.6,0.6,1.3,0.9,2.1,0.9c0.8,0,1.6-0.3,2.1-0.9c0.6-0.6,0.9-1.3,0.9-2.1V47.7c0-1.4,0.2-2.8,0.7-4s1.2-2.4,2-3.3
		c0.8-1,1.7-1.7,2.7-2.3c0.9-0.5,1.9-0.8,2.8-0.8c0.7,0,1.2,0.1,1.6,0.3c1.2,0.6,2.6,0.6,3.7-0.4c0.6-0.5,0.8-1.3,0.8-2.3
		C427.4,34,426.9,33.2,426,32.7z"/>
	<path class="st0" d="M453,34.2c-2.5-1.5-5.3-2.2-8.5-2.2c-3.1,0-5.9,0.8-8.4,2.2c-2.5,1.5-4.5,3.6-6,6.1c-1.5,2.6-2.2,5.6-2.2,8.9
		s0.7,6.3,2.2,8.9s3.5,4.7,6,6.1c2.5,1.5,5.3,2.2,8.4,2.2s6-0.8,8.5-2.2c2.5-1.5,4.5-3.6,5.9-6.1c1.4-2.6,2.2-5.6,2.2-8.9
		s-0.7-6.3-2.2-8.9C457.5,37.8,455.5,35.7,453,34.2z M455.1,49.2c0,2.3-0.5,4.3-1.4,6s-2.2,3.1-3.8,4.1c-1.6,1-3.4,1.5-5.4,1.5
		s-3.8-0.5-5.4-1.5s-2.9-2.4-3.8-4.1s-1.4-3.8-1.4-6c0-2.3,0.5-4.3,1.4-6.1c0.9-1.7,2.2-3.1,3.8-4.1c1.6-1,3.4-1.5,5.4-1.5
		s3.8,0.5,5.4,1.5s2.9,2.4,3.8,4.1C454.7,44.9,455.1,46.9,455.1,49.2z"/>
	<path class="st0" d="M487.7,52.4c-0.6-1.2-1.5-2.1-2.5-2.9c-1-0.7-2.2-1.3-3.4-1.8c-1.2-0.4-2.5-0.8-3.8-1.2
		c-1.4-0.4-2.7-0.8-3.9-1.3c-1.1-0.4-2-0.9-2.7-1.6c-0.6-0.6-0.9-1.4-1-2.4c0-1.1,0.3-1.9,0.8-2.4c0.6-0.6,1.3-1,2.2-1.3
		c0.9-0.3,1.8-0.4,2.7-0.4c1.5,0,2.9,0.3,4.1,0.8s2.3,1.3,3.2,2.3c0.5,0.5,1,0.7,1.7,0.7s1.3-0.2,1.9-0.6c0.7-0.6,1-1.3,1-2.1
		c0-0.7-0.3-1.4-0.7-1.8c-0.9-1.2-2.1-2.1-3.3-2.8c-1.2-0.7-2.5-1.1-3.8-1.4c-3.6-0.8-6.8-0.5-9.6,0.7c-1.8,0.8-3.2,1.9-4.3,3.3
		c-1.1,1.4-1.6,3.2-1.6,5.1c0,1.7,0.3,3.2,1,4.3c0.7,1.2,1.6,2.1,2.7,2.9c1.1,0.7,2.3,1.4,3.7,1.8c1.3,0.4,2.7,0.9,4.1,1.3
		c1.3,0.3,2.5,0.7,3.6,1.1s1.9,0.9,2.6,1.6c0.6,0.6,0.9,1.4,0.9,2.4c0,1.1-0.3,1.9-0.9,2.5c-0.6,0.7-1.4,1.1-2.3,1.4
		c-1,0.3-1.9,0.4-2.8,0.5c-2.1,0-3.8-0.4-5.2-1.2c-1.4-0.8-2.7-1.8-3.8-3.2c-0.5-0.6-1.2-0.9-1.9-1c-0.7,0-1.3,0.1-1.8,0.5
		c-0.8,0.5-1.2,1.2-1.2,2c0,0.7,0.2,1.4,0.5,2l0,0c1.7,2.2,3.7,3.7,6,4.6s4.6,1.3,6.9,1.3c2.1,0,4-0.4,5.9-1.1
		c1.8-0.8,3.3-1.9,4.4-3.3c1.1-1.5,1.7-3.2,1.7-5.2C488.6,55.1,488.3,53.6,487.7,52.4z"/>
</g>
<g>
	<g>
		<path class="st1" d="M64.7,21.5l-6.6-18c-0.9-2.5-3.8-4-6.4-3.3L33.4,5.3c-2.6,0.7-5.7,3.3-7,5.7l-4.5,8.8
			c0.5-0.1,0.9-0.1,1.4-0.1c3.1-0.1,6.3,0.5,9.6,1.8c3,1.2,5.6,2.8,7.8,4.8s3.8,4.2,4.8,6.4c0.7,1.5,0.9,2.8,0.4,4
			c-0.4,0.9-1,1.6-2,2.1s-2,0.5-2.9,0.2c-0.6-0.3-1.1-0.7-1.4-1.3c-0.4-1.1-1.1-2.3-2.2-3.5c-1-1.2-2.2-2.3-3.4-3.3
			c-1.3-1-2.6-1.8-3.9-2.3c-2.1-0.9-4.1-1.3-5.9-1.3c-1.8,0-3.3,0.4-4.5,1.1s-2.1,1.8-2.7,3.2c-0.7,1.7-0.8,3.2-0.3,4.7
			s1.4,2.9,2.8,4.2c1.4,1.3,3.1,2.7,5,4.1c2.4,1.6,4.5,3.2,6.2,4.8c1.8,1.6,3.1,3.2,4.1,5c1,1.7,1.5,3.6,1.5,5.6
			c0.1,2-0.4,4.3-1.4,6.9c-1.2,3-3,5.2-5.5,6.8c-2.5,1.6-5.3,2.4-8.5,2.6c-0.4,0-0.8,0-1.2,0l11.9,6.2c2.4,1.2,5.4,0.3,6.6-2.1
			l25.9-50C65.4,28.1,65.6,24,64.7,21.5z M53.5,12.7L53.5,12.7c-1,1.9-3.2,2.6-5.1,1.6l0,0c-1.9-1-2.6-3.2-1.6-5.1
			c1-1.9,3.2-2.6,5.1-1.6C53.7,8.5,54.5,10.8,53.5,12.7z"/>
		<path class="st1" d="M3,58.1c1.1,2.5,3.1,4.7,4.7,6.4c1.6,1.7,3.8,2.5,6.4,3.6c1.9,0.8,4,0.8,5.8,0.8c1.9,0,3.3-0.6,4.7-1.3
			c1.4-0.7,2.4-1.8,2.9-3.2c0.7-1.8,0.8-3.4,0.3-5s-1.5-3.1-3.1-4.6c-1.5-1.5-3.5-3-5.8-4.6c-2.2-1.4-4.1-2.9-5.6-4.4
			c-1.2-1.2-2.2-2.4-3-3.7L2.6,56.6C2.9,56.8,2.8,57.8,3,58.1z"/>
	</g>
	<path class="st2" d="M19.7,28.4c1.2-0.7,2.7-1.1,4.5-1.1s3.7,0.4,5.9,1.3c1.3,0.5,2.6,1.3,3.9,2.3c1.3,1,2.4,2.1,3.4,3.3
		c1,1.2,1.7,2.3,2.2,3.5c0.3,0.6,0.8,1,1.5,1.3c0.9,0.4,1.9,0.3,2.9-0.2s1.7-1.2,2-2.1c0.5-1.2,0.3-2.5-0.4-4
		c-1-2.3-2.6-4.4-4.8-6.4S36,22.7,33,21.5c-3.3-1.3-6.5-1.9-9.6-1.8c-0.5,0-0.9,0.1-1.4,0.1L10.4,42.1c0.8,1.3,1.8,2.6,3,3.7
		c1.6,1.5,3.4,3,5.6,4.4c2.4,1.6,4.3,3.1,5.8,4.6s2.5,3,3.1,4.6c0.5,1.6,0.4,3.2-0.3,5c-0.6,1.4-1.6,2.5-2.9,3.2
		c-1.4,0.7-3,1.1-4.9,1.1s-3.7-0.4-5.6-1.1c-2.7-1.1-4.8-2.4-6.4-4.1c-1.6-1.7-3.2-3.3-4.3-5.7c-0.2-0.4-0.5-0.9-0.6-1.4l-2.2,4.7
		c-1.2,2.4-0.3,5.4,2.1,6.6l17,8.8c0.4,0,0.8,0,1.2,0c3.1-0.2,6-1,8.5-2.6s4.4-3.8,5.5-6.8c1-2.6,1.5-4.9,1.4-6.9s-0.6-3.9-1.5-5.6
		c-1-1.7-2.3-3.4-4.1-5s-3.9-3.2-6.2-4.8c-1.9-1.4-3.6-2.8-5-4.1c-1.4-1.3-2.3-2.7-2.8-4.2s-0.4-3,0.3-4.7
		C17.5,30.2,18.4,29.1,19.7,28.4z"/>
</g>
</svg>
